<?xml version="1.0" encoding="UTF-8" standalone="no"?>
<!-- Created with Inkscape (http://www.inkscape.org/) -->

<svg
   width="256"
   height="256"
   viewBox="0 0 64 64"
   version="1.1"
   id="svg5"
   xml:space="preserve"
   inkscape:version="1.2.1 (9c6d41e410, 2022-07-14)"
   sodipodi:docname="reward_randomizer_simple.svg"
   xmlns:inkscape="http://www.inkscape.org/namespaces/inkscape"
   xmlns:sodipodi="http://sodipodi.sourceforge.net/DTD/sodipodi-0.dtd"
   xmlns="http://www.w3.org/2000/svg"
   xmlns:svg="http://www.w3.org/2000/svg"
   xmlns:rdf="http://www.w3.org/1999/02/22-rdf-syntax-ns#"
   xmlns:cc="http://creativecommons.org/ns#"
   xmlns:dc="http://purl.org/dc/elements/1.1/"><title
     id="title11981">Reward Randomizer icon</title><sodipodi:namedview
     id="namedview7"
     pagecolor="#505050"
     bordercolor="#eeeeee"
     borderopacity="1"
     inkscape:showpageshadow="0"
     inkscape:pageopacity="0"
     inkscape:pagecheckerboard="0"
     inkscape:deskcolor="#505050"
     inkscape:document-units="px"
     showgrid="false"
     inkscape:lockguides="false"
     showguides="true"
     inkscape:zoom="2"
     inkscape:cx="60.250001"
     inkscape:cy="218"
     inkscape:window-width="2560"
     inkscape:window-height="1417"
     inkscape:window-x="-8"
     inkscape:window-y="-8"
     inkscape:window-maximized="1"
     inkscape:current-layer="layer1" /><defs
     id="defs2"><inkscape:path-effect
       effect="powermask"
       id="path-effect4968"
       is_visible="true"
       lpeversion="1"
       uri="#mask-powermask-path-effect4968"
       invert="false"
       hide_mask="false"
       background="true"
       background_color="#ffffffff" /><inkscape:path-effect
       effect="powermask"
       id="path-effect4964"
       is_visible="true"
       lpeversion="1"
       uri="#mask-powermask-path-effect4964"
       invert="false"
       hide_mask="false"
       background="true"
       background_color="#ffffffff" /><inkscape:path-effect
       effect="powermask"
       id="path-effect4960"
       is_visible="true"
       lpeversion="1"
       uri="#mask-powermask-path-effect4960"
       invert="false"
       hide_mask="false"
       background="true"
       background_color="#ffffffff" /><inkscape:path-effect
       effect="powermask"
       id="path-effect4956"
       is_visible="true"
       lpeversion="1"
       uri="#mask-powermask-path-effect4956"
       invert="false"
       hide_mask="false"
       background="true"
       background_color="#ffffffff" /><mask
       maskUnits="userSpaceOnUse"
       id="mask-powermask-path-effect4956"><path
         id="mask-powermask-path-effect4956_box"
         style="fill:#ffffff;fill-opacity:1"
         d="M 8.0142235,17.544276 H 54.718503 V 51.711893 H 8.0142235 Z" /><path
         id="path4970"
         style="fill:#ffffff;fill-opacity:1"
         d="M 8.0142235,17.544276 H 54.718503 V 51.711893 H 8.0142235 Z" /><path
         style="fill:#000000;stroke:#000000;stroke-width:2.5;stroke-dasharray:none;stroke-opacity:1"
         d="m 31.215137,32.847097 c -0.09458,-0.01267 -0.222202,-0.05314 -0.328185,-0.10405 -0.033,-0.01585 -1.29075,-0.71001 -2.795,-1.542572 -1.955362,-1.08224 -2.757092,-1.528435 -2.8125,-1.56527 -0.234762,-0.15607 -0.460442,-0.387675 -0.638273,-0.655028 -0.229587,-0.345165 -0.370404,-0.711852 -0.417626,-1.087499 -0.0054,-0.04306 -0.0066,-0.722488 -0.0066,-3.780001 0,-3.557682 4e-4,-3.730071 0.009,-3.783949 0.04646,-0.292946 0.171781,-0.48932 0.375789,-0.588832 0.197907,-0.09654 0.444848,-0.08001 0.710258,0.04753 0.0884,0.04248 5.5222,3.050136 5.58995,3.094087 0.244707,0.158744 0.47072,0.388219 0.656115,0.666163 0.22578,0.338489 0.362655,0.687704 0.417425,1.065 l 0.01125,0.0775 0.0015,3.672499 c 0.0012,2.651883 8e-5,3.693345 -0.0039,3.7475 -0.02095,0.283595 -0.124315,0.503878 -0.295735,0.63017 -0.05797,0.04271 -0.1465,0.08165 -0.22759,0.10009 -0.04192,0.0095 -0.193793,0.01365 -0.245935,0.0067 z m 2.224316,0.003 c -0.0041,-7.5e-4 -0.02437,-0.0042 -0.045,-0.0075 -0.07876,-0.01275 -0.180767,-0.05542 -0.244212,-0.102162 -0.140185,-0.103283 -0.238738,-0.276465 -0.277835,-0.488225 -0.0068,-0.03682 -0.01485,-0.100695 -0.0179,-0.141945 -0.004,-0.05416 -0.0051,-1.09562 -0.0039,-3.7475 l 0.0015,-3.6725 0.01095,-0.07509 c 0.02102,-0.144236 0.04948,-0.269741 0.08912,-0.393068 0.181587,-0.564891 0.574857,-1.090557 1.017942,-1.360635 0.09726,-0.05929 5.478575,-3.036351 5.556728,-3.074109 0.13931,-0.06731 0.264685,-0.101337 0.3975,-0.107896 0.115417,-0.0057 0.21585,0.01364 0.3125,0.06018 0.202012,0.09728 0.329827,0.297301 0.37592,0.588293 0.0087,0.05501 0.0091,0.207703 0.0091,3.787321 0,3.579284 -2.5e-4,3.732729 -0.0091,3.797499 -0.04971,0.36861 -0.189898,0.729095 -0.415153,1.0675 -0.19339,0.290535 -0.433637,0.530002 -0.695975,0.693715 -0.05486,0.03423 -5.498012,3.044352 -5.54977,3.069077 -0.112497,0.05374 -0.236112,0.0922 -0.335,0.104213 -0.03994,0.0049 -0.157657,0.0068 -0.1775,0.0029 z m -12.3925,-5.385247 c -0.163339,-0.02554 -0.306543,-0.09905 -0.4225,-0.216893 -0.109549,-0.111325 -0.179168,-0.246677 -0.2052,-0.39895 -0.0097,-0.05673 -0.0098,-0.123102 -0.0098,-6.376329 0,-6.304965 0,-6.319137 0.01004,-6.377745 0.02651,-0.155064 0.09636,-0.28911 0.209731,-0.402481 0.108433,-0.108433 0.234394,-0.175975 0.387727,-0.207904 0.04254,-0.0089 0.07772,-0.0094 0.6425,-0.0094 0.56609,0 0.599865,5e-4 0.6425,0.0094 0.319198,0.06685 0.553911,0.314014 0.599928,0.631751 0.007,0.04857 0.0077,0.671908 0.0064,6.381324 l -0.0014,6.327499 -0.01084,0.04641 c -0.03631,0.155485 -0.101961,0.276723 -0.20644,0.381203 -0.104589,0.104588 -0.227004,0.170828 -0.381202,0.20627 -0.04581,0.01052 -0.05401,0.01067 -0.631409,0.01175 -0.482228,0.001 -0.592906,-1.55e-4 -0.63,-0.006 z m 21.552499,0.0044 C 42.30741,27.43666 42.05892,27.2361 41.967323,26.959052 c -0.0075,-0.0226 -0.01845,-0.06198 -0.02443,-0.0875 l -0.01085,-0.04641 -0.0015,-6.322498 c -0.0012,-4.72394 -9.6e-5,-6.33451 0.0042,-6.37 0.01268,-0.105194 0.04724,-0.206234 0.101468,-0.29656 0.109705,-0.182739 0.285935,-0.305979 0.503282,-0.351951 0.03956,-0.0084 0.08408,-0.009 0.6425,-0.009 h 0.6 l 0.05128,0.01135 c 0.147523,0.03265 0.270383,0.09986 0.376445,0.205923 0.113593,0.113592 0.183278,0.24774 0.210053,0.404365 0.0096,0.0561 0.0097,0.140402 0.0097,6.375861 0,6.253228 -10e-5,6.319603 -0.0098,6.37633 -0.01863,0.108943 -0.06474,0.220108 -0.12864,0.310123 -0.03736,0.05263 -0.12265,0.137865 -0.175488,0.17538 -0.0803,0.05702 -0.178175,0.0995 -0.286832,0.1245 -0.04629,0.01065 -0.05226,0.01075 -0.62924,0.0115 -0.320375,5e-4 -0.590375,-1.45e-4 -0.6,-0.0013 z m -24.55324,-1.61162 c -0.174689,-0.01892 -0.330327,-0.09341 -0.454329,-0.217415 -0.129379,-0.12938 -0.199798,-0.280815 -0.217424,-0.46757 -0.0039,-0.04101 -0.005,-1.410068 -0.004,-4.7725 0.0014,-4.544758 0.0018,-4.716715 0.01061,-4.7625 0.06304,-0.327335 0.315545,-0.569643 0.640852,-0.614987 0.02807,-0.0039 0.200274,-0.005 0.5775,-0.0038 0.58971,0.002 0.549347,-3.5e-5 0.652404,0.03222 0.265621,0.08313 0.465892,0.313504 0.512651,0.589702 0.01002,0.05921 0.01005,0.07141 0.0086,4.819357 l -0.0014,4.759998 -0.01118,0.045 c -0.02634,0.105998 -0.05996,0.185318 -0.110445,0.260543 -0.09549,0.142282 -0.228089,0.243372 -0.389074,0.296615 -0.117468,0.03885 -0.09183,0.03738 -0.666599,0.03834 -0.281875,5e-4 -0.528583,-0.001 -0.548241,-0.003 z m 27.689495,-7.5e-4 c -0.257682,-0.02701 -0.487592,-0.188853 -0.598492,-0.421308 -0.02435,-0.05105 -0.04718,-0.11952 -0.06101,-0.18304 -0.009,-0.04119 -0.0093,-0.189344 -0.0093,-4.815 v -4.7725 l 0.01163,-0.0519 c 0.03417,-0.152612 0.105975,-0.282047 0.21406,-0.385861 0.08492,-0.08157 0.174212,-0.13588 0.2825,-0.171842 0.11217,-0.03725 0.06648,-0.03475 0.668935,-0.03656 0.520745,-0.0016 0.544395,-0.0012 0.6,0.0082 0.334725,0.05701 0.585625,0.327966 0.620152,0.66972 0.0071,0.06983 0.0072,9.412647 1.35e-4,9.48072 -0.01902,0.18369 -0.09021,0.335232 -0.217335,0.462732 -0.125767,0.126135 -0.277892,0.19816 -0.458792,0.21722 -0.05721,0.006 -0.994383,0.0055 -1.052523,-4.99e-4 z M 15.394453,23.442383 c -0.318696,-0.04233 -0.572567,-0.274886 -0.640745,-0.58695 -0.0054,-0.02461 -0.01184,-0.07299 -0.01437,-0.1075 -0.0062,-0.08515 -0.0062,-4.538242 5.9e-5,-4.618396 0.0086,-0.110152 0.03496,-0.204758 0.08251,-0.295812 0.03747,-0.07175 0.07665,-0.124967 0.135059,-0.183464 0.0618,-0.06189 0.121886,-0.104782 0.19999,-0.142758 0.09403,-0.04572 0.161865,-0.06469 0.268507,-0.0751 0.08843,-0.0086 0.640061,-0.0033 0.688993,0.0067 0.176408,0.03592 0.306676,0.106677 0.422083,0.229273 0.09481,0.100713 0.156807,0.221078 0.189086,0.367082 l 0.01099,0.04972 0.0017,2.315 c 0.0012,1.705764 1.67e-4,2.330132 -0.004,2.3725 -0.03243,0.327446 -0.270368,0.589979 -0.599285,0.661239 -0.04554,0.0099 -0.06498,0.01046 -0.378012,0.01159 -0.1815,6.5e-4 -0.344625,-7.5e-4 -0.3625,-0.0031 z m 33.382499,0.0021 c -0.09938,-0.01288 -0.182947,-0.03699 -0.257845,-0.07438 -0.23287,-0.116265 -0.38682,-0.337145 -0.414685,-0.594966 -0.0038,-0.03531 -0.0049,-0.731441 -0.0038,-2.37 l 0.0015,-2.32 0.011,-0.04972 c 0.03228,-0.146005 0.09428,-0.266369 0.189087,-0.367082 0.114813,-0.121966 0.250195,-0.195611 0.420772,-0.228891 0.03745,-0.0073 0.08665,-0.0088 0.338811,-0.01056 0.298092,-0.002 0.367132,5.25e-4 0.443992,0.01644 0.139405,0.02886 0.272833,0.101572 0.375997,0.204888 0.05841,0.0585 0.09759,0.111714 0.135058,0.183464 0.04755,0.09105 0.07394,0.18566 0.08251,0.295812 0.0067,0.08551 0.0065,4.52961 -1.3e-4,4.616871 -0.0082,0.107151 -0.03033,0.191361 -0.07334,0.27877 -0.104505,0.212365 -0.28773,0.354597 -0.526193,0.408464 -0.04618,0.01043 -0.05962,0.01085 -0.377885,0.01182 -0.181499,5.5e-4 -0.33675,1.3e-4 -0.344999,-9.5e-4 z m -16.4725,-1.137237 c -0.369667,-0.01368 -0.726775,-0.09746 -1.00016,-0.234649 -0.071,-0.03563 -5.4937,-3.037876 -5.54964,-3.072526 -0.115967,-0.07183 -0.24047,-0.184107 -0.303582,-0.273768 -0.07338,-0.10425 -0.1167,-0.229733 -0.116588,-0.337737 5e-5,-0.04282 0.01315,-0.121139 0.02755,-0.164646 0.0523,-0.158004 0.182228,-0.309937 0.370095,-0.432775 0.0584,-0.03819 5.46433,-3.031971 5.572323,-3.085934 0.432822,-0.216274 1.0313,-0.291234 1.5925,-0.199463 0.23227,0.03798 0.448205,0.104769 0.6275,0.19408 0.0855,0.04259 5.484642,3.030359 5.556645,3.074929 0.164257,0.101674 0.295297,0.234566 0.360325,0.365421 0.08224,0.165492 0.0824,0.329817 5e-4,0.495 -0.07071,0.14257 -0.208438,0.27803 -0.392955,0.386493 -0.08077,0.04747 -5.465508,3.026436 -5.51954,3.053534 -0.260198,0.130494 -0.62915,0.218645 -0.962445,0.229951 -0.044,0.0015 -0.098,0.0034 -0.12,0.0043 -0.022,8.75e-4 -0.08613,-1.2e-4 -0.1425,-0.0022 z M 13.129453,21.7426 c -0.232949,-0.01794 -0.447848,-0.147723 -0.576016,-0.347879 -0.04199,-0.06558 -0.08124,-0.162925 -0.100202,-0.248567 l -0.01128,-0.05094 v -0.655 c 0,-0.62242 4.75e-4,-0.657239 0.0094,-0.7 0.02177,-0.103944 0.06653,-0.20876 0.123832,-0.29 0.04065,-0.05762 0.124121,-0.141097 0.181743,-0.181743 0.08002,-0.05644 0.178534,-0.09909 0.28117,-0.121715 0.04258,-0.0094 0.06863,-0.01103 0.203535,-0.01284 0.173267,-0.0023 0.221585,0.0014 0.3059,0.02382 0.293058,0.07783 0.510599,0.325217 0.549599,0.624995 0.0066,0.05048 0.0074,0.145904 0.006,0.685561 -0.0016,0.625816 -0.0017,0.627008 -0.01268,0.675216 -0.03553,0.155416 -0.09915,0.272678 -0.205837,0.379419 -0.107098,0.107149 -0.235806,0.177504 -0.378955,0.207148 -0.07653,0.01585 -0.255648,0.02181 -0.37623,0.01253 z m 38.294697,-3.7e-4 c -0.184683,-0.01424 -0.357323,-0.0977 -0.486935,-0.235384 -0.09508,-0.101007 -0.1568,-0.220519 -0.189068,-0.366114 l -0.0112,-0.05052 v -0.6525 -0.6525 l 0.01127,-0.05094 c 0.06034,-0.272452 0.24944,-0.483671 0.506218,-0.565426 0.10105,-0.03217 0.114765,-0.03364 0.315,-0.0336 0.16981,5e-5 0.185867,8e-4 0.230915,0.01101 0.07196,0.01632 0.119797,0.03336 0.186585,0.06649 0.205542,0.101952 0.351792,0.294529 0.400577,0.527458 0.009,0.04276 0.0094,0.07758 0.0094,0.7 v 0.655 l -0.01128,0.05094 c -0.03448,0.155678 -0.105652,0.282514 -0.220177,0.39236 -0.126593,0.121418 -0.28251,0.190222 -0.462853,0.20425 -0.07096,0.0055 -0.203287,0.0053 -0.278492,-5.25e-4 z"
         id="path4972"
         inkscape:label="dumbbell_die_mask"
         sodipodi:nodetypes="csssscscssssscccscccccsssccscsssscscsssccccssscscsccccssssccscscccscscssssssssssscscccccssccsssscccscscsssccccsccccccssssccssccccscccscccssscsssccssscccsssssssssssssssccccsscsccsccccccsscccsscccsscsscscssccc" /></mask><mask
       maskUnits="userSpaceOnUse"
       id="mask-powermask-path-effect4960"><path
         id="mask-powermask-path-effect4960_box"
         style="fill:#ffffff;fill-opacity:1"
         d="M -1,-1 H 17 V 17 H -1 Z" /><path
         id="path4980"
         style="fill:#ffffff;fill-opacity:1"
         d="M -1,-1 H 17 V 17 H -1 Z" /><path
         id="path4982"
         style="fill:#ffffff;fill-opacity:1"
         d="M -1,-1 H 17 V 17 H -1 Z" /><g
         id="g4994"
         style=""><circle
           style="fill:#000000;fill-opacity:1;stroke:none;stroke-width:4.0082;stroke-linecap:round;stroke-linejoin:round"
           id="circle4984"
           cx="4"
           cy="4"
           r="1.5"
           d="M 5.5,4 A 1.5,1.5 0 0 1 4,5.5 1.5,1.5 0 0 1 2.5,4 1.5,1.5 0 0 1 4,2.5 1.5,1.5 0 0 1 5.5,4 Z" /><circle
           style="fill:#000000;fill-opacity:1;stroke:none;stroke-width:4.0082;stroke-linecap:round;stroke-linejoin:round"
           id="circle4986"
           cx="12"
           cy="4"
           r="1.5"
           d="M 13.5,4 A 1.5,1.5 0 0 1 12,5.5 1.5,1.5 0 0 1 10.5,4 1.5,1.5 0 0 1 12,2.5 1.5,1.5 0 0 1 13.5,4 Z" /><circle
           style="fill:#000000;fill-opacity:1;stroke:none;stroke-width:4.0082;stroke-linecap:round;stroke-linejoin:round"
           id="circle4988"
           cx="4"
           cy="12"
           r="1.5"
           d="M 5.5,12 A 1.5,1.5 0 0 1 4,13.5 1.5,1.5 0 0 1 2.5,12 1.5,1.5 0 0 1 4,10.5 1.5,1.5 0 0 1 5.5,12 Z" /><circle
           style="fill:#000000;fill-opacity:1;stroke:none;stroke-width:4.0082;stroke-linecap:round;stroke-linejoin:round"
           id="circle4990"
           cx="12"
           cy="12"
           r="1.5"
           d="M 13.5,12 A 1.5,1.5 0 0 1 12,13.5 1.5,1.5 0 0 1 10.5,12 1.5,1.5 0 0 1 12,10.5 1.5,1.5 0 0 1 13.5,12 Z" /><circle
           style="fill:#000000;fill-opacity:1;stroke:none;stroke-width:4.0082;stroke-linecap:round;stroke-linejoin:round"
           id="circle4992"
           cx="8"
           cy="8"
           r="1.5"
           d="M 9.5,8 A 1.5,1.5 0 0 1 8,9.5 1.5,1.5 0 0 1 6.5,8 1.5,1.5 0 0 1 8,6.5 1.5,1.5 0 0 1 9.5,8 Z" /></g></mask><mask
       maskUnits="userSpaceOnUse"
       id="mask-powermask-path-effect4964"><path
         id="mask-powermask-path-effect4964_box"
         style="fill:#ffffff;fill-opacity:1"
         d="M -1,-1 H 17 V 17 H -1 Z" /><path
         id="path5002"
         style="fill:#ffffff;fill-opacity:1"
         d="M -1,-1 H 17 V 17 H -1 Z" /><path
         id="path5004"
         style="fill:#ffffff;fill-opacity:1"
         d="M -1,-1 H 17 V 17 H -1 Z" /><g
         id="g5014"
         style=""><circle
           style="fill:#000000;fill-opacity:1;stroke:none;stroke-width:4.0082;stroke-linecap:round;stroke-linejoin:round"
           id="circle5006"
           r="1.5"
           cy="4"
           cx="4"
           d="M 5.5,4 A 1.5,1.5 0 0 1 4,5.5 1.5,1.5 0 0 1 2.5,4 1.5,1.5 0 0 1 4,2.5 1.5,1.5 0 0 1 5.5,4 Z" /><circle
           style="fill:#000000;fill-opacity:1;stroke:none;stroke-width:4.0082;stroke-linecap:round;stroke-linejoin:round"
           id="circle5008"
           r="1.5"
           cy="4"
           cx="12"
           d="M 13.5,4 A 1.5,1.5 0 0 1 12,5.5 1.5,1.5 0 0 1 10.5,4 1.5,1.5 0 0 1 12,2.5 1.5,1.5 0 0 1 13.5,4 Z" /><circle
           style="fill:#000000;fill-opacity:1;stroke:none;stroke-width:4.0082;stroke-linecap:round;stroke-linejoin:round"
           id="circle5010"
           r="1.5"
           cy="12"
           cx="4"
           d="M 5.5,12 A 1.5,1.5 0 0 1 4,13.5 1.5,1.5 0 0 1 2.5,12 1.5,1.5 0 0 1 4,10.5 1.5,1.5 0 0 1 5.5,12 Z" /><circle
           style="fill:#000000;fill-opacity:1;stroke:none;stroke-width:4.0082;stroke-linecap:round;stroke-linejoin:round"
           id="circle5012"
           cx="12"
           cy="12"
           r="1.5"
           d="M 13.5,12 A 1.5,1.5 0 0 1 12,13.5 1.5,1.5 0 0 1 10.5,12 1.5,1.5 0 0 1 12,10.5 1.5,1.5 0 0 1 13.5,12 Z" /></g></mask><mask
       maskUnits="userSpaceOnUse"
       id="mask-powermask-path-effect4968"><path
         id="mask-powermask-path-effect4968_box"
         style="fill:#ffffff;fill-opacity:1"
         d="M -1,-1 H 17 V 17 H -1 Z" /><path
         id="path5022"
         style="fill:#ffffff;fill-opacity:1"
         d="M -1,-1 H 17 V 17 H -1 Z" /><path
         id="path5024"
         style="fill:#ffffff;fill-opacity:1"
         d="M -1,-1 H 17 V 17 H -1 Z" /><circle
         style="fill:#000000;fill-opacity:1;stroke:none;stroke-width:4.0082;stroke-linecap:round;stroke-linejoin:round"
         id="circle5026"
         cx="7.9999986"
         cy="8"
         r="1.5"
         d="m 9.4999986,8 a 1.5,1.5 0 0 1 -1.5,1.5 1.5,1.5 0 0 1 -1.5,-1.5 1.5,1.5 0 0 1 1.5,-1.5 1.5,1.5 0 0 1 1.5,1.5 z" /></mask></defs><g
     inkscape:label="Lager 1"
     inkscape:groupmode="layer"
     id="layer1"
     style="display:inline"><g
       id="g4952"
       inkscape:label="dumbbell_die_book"
       style="display:inline"
       transform="matrix(1.4316303,0,0,1.4316303,-12.905036,-14.28227)"><g
         id="g4912"
         inkscape:label="book"
         style="display:inline"
         mask="url(#mask-powermask-path-effect4956)"
         inkscape:path-effect="#path-effect4956"><path
           style="opacity:1;fill:#ffffff;fill-opacity:1;stroke:none;stroke-width:0.025;stroke-linecap:round;stroke-linejoin:round;stroke-dasharray:none;stroke-opacity:1"
           d="m 38.802485,46.845825 3.270367,3.40295 0.486138,-2.298098 2.65165,0.220973 -3.358758,-3.535535"
           id="path4902"
           inkscape:label="book_bookmark"
           inkscape:original-d="m 38.802485,46.845825 3.270367,3.40295 0.486138,-2.298098 2.65165,0.220973 -3.358758,-3.535535" /><path
           id="path4904"
           style="display:inline;opacity:1;fill:#ffffff;stroke-width:1.88454;stroke-linecap:round;stroke-linejoin:round"
           inkscape:label="book_bottom"
           d="m 52.577358,37.169276 0.862112,0.398288 c 0.377192,0.174259 0.36306,0.537447 0.0115,0.75891 L 34.226087,50.433889 c -1.841106,0.34578 -1.356064,-0.65706 -1.093264,-3.534934 z"
           sodipodi:nodetypes="cssccc"
           inkscape:original-d="m 52.577358,37.169276 0.862112,0.398288 c 0.377192,0.174259 0.36306,0.537447 0.0115,0.75891 L 34.226087,50.433889 c -1.841106,0.34578 -1.356064,-0.65706 -1.093264,-3.534934 z" /><path
           style="display:inline;opacity:1;fill:#ffffff;fill-opacity:1;stroke:none;stroke-width:0.0225;stroke-linecap:round;stroke-linejoin:round;stroke-dasharray:none;stroke-opacity:1"
           d="M 52.624369,38.056088 V 32.570069 L 33.725038,44.599767 c -0.936452,0.596181 -1.627853,1.067312 -1.636724,2.950043 0.0086,1.901461 0.818685,2.789566 1.183975,2.876359 z"
           id="path4906"
           sodipodi:nodetypes="cccccc"
           inkscape:label="book_pages"
           inkscape:original-d="M 52.624369,38.056088 V 32.570069 L 33.725038,44.599767 c -0.936452,0.596181 -1.627853,1.067312 -1.636724,2.950043 0.0086,1.901461 0.818685,2.789566 1.183975,2.876359 z" /><path
           style="display:inline;opacity:1;fill:#ffffff;fill-opacity:1;stroke:none;stroke-width:0.025;stroke-linecap:round;stroke-linejoin:round;stroke-dasharray:none;stroke-opacity:1"
           d="m 32.17678,50.711893 c -0.528988,-0.572951 -0.988669,-0.883835 -1.146707,-2.87157 0.0099,-2.091923 0.548355,-3.12314 1.498269,-3.434075 L 10.832805,32.521617 c -1.2311637,0.04531 -1.8087247,1.185902 -1.8185815,3.277825 0.00963,2.112735 0.8527881,2.61793 1.8185815,3.27782 z"
           id="path4908"
           sodipodi:nodetypes="ccccccc"
           inkscape:label="book_spine"
           inkscape:original-d="m 32.17678,50.711893 c -0.528988,-0.572951 -0.988669,-0.883835 -1.146707,-2.87157 0.0099,-2.091923 0.548355,-3.12314 1.498269,-3.434075 L 10.832805,32.521617 c -1.2311637,0.04531 -1.8087247,1.185902 -1.8185815,3.277825 0.00963,2.112735 0.8527881,2.61793 1.8185815,3.27782 z" /><path
           id="path4910"
           style="display:inline;opacity:1;fill:#ffffff;stroke-width:1.88454;stroke-linecap:round;stroke-linejoin:round"
           inkscape:label="book_top"
           d="M 32.858608,18.544276 53.43947,30.348814 c 0.360422,0.206727 0.36306,0.537447 0.0115,0.75891 L 33.288587,43.808889 11.070323,31.773955 Z"
           sodipodi:nodetypes="cssccc"
           inkscape:original-d="M 32.858608,18.544276 53.43947,30.348814 c 0.360422,0.206727 0.36306,0.537447 0.0115,0.75891 L 33.288587,43.808889 11.070323,31.773955 Z" /></g><g
         id="g4950"
         inkscape:label="dumbbell_die"
         style="display:inline;fill:#ffffff"><g
           id="g4926"
           inkscape:label="die"
           style="display:inline;fill:#ffffff"><g
             id="g4916"
             transform="matrix(0.48584532,-0.26893125,0,0.61729498,32.848657,23.475373)"
             sodipodi:insensitive="true"
             inkscape:label="die_side_5"
             style="fill:#ffffff"><path
               style="fill:#ffffff;fill-opacity:1;stroke:none;stroke-width:4.0082;stroke-linecap:round;stroke-linejoin:round"
               id="path4914"
               width="16"
               height="16"
               x="0"
               y="0"
               ry="2.1869609"
               rx="2.4310725"
               mask="url(#mask-powermask-path-effect4960)"
               inkscape:path-effect="#path-effect4960"
               d="M 2.4310725,0 H 13.568928 C 14.915742,0 16,0.97538458 16,2.1869609 V 13.813039 C 16,15.024615 14.915742,16 13.568928,16 H 2.4310725 C 1.0842583,16 0,15.024615 0,13.813039 V 2.1869609 C 0,0.97538458 1.0842583,0 2.4310725,0 Z"
               sodipodi:type="rect"
               inkscape:label="die_side_5_pips" /></g><g
             id="g4920"
             transform="matrix(0.48584709,0.26893125,-0.48584709,0.26893125,32.416795,14.081816)"
             inkscape:label="die_side_4"
             sodipodi:insensitive="true"
             style="fill:#ffffff"><path
               style="fill:#ffffff;fill-opacity:1;stroke:none;stroke-width:4.0082;stroke-linecap:round;stroke-linejoin:round"
               id="path4918"
               width="16"
               height="16"
               x="0"
               y="0"
               ry="2.4310658"
               rx="2.4310658"
               mask="url(#mask-powermask-path-effect4964)"
               sodipodi:type="rect"
               inkscape:label="die_side_4_pips"
               d="M 2.4310658,0 H 13.568934 C 14.915745,0 16,1.0842553 16,2.4310658 V 13.568934 C 16,14.915745 14.915745,16 13.568934,16 H 2.4310658 C 1.0842553,16 0,14.915745 0,13.568934 V 2.4310658 C 0,1.0842553 1.0842553,0 2.4310658,0 Z"
               inkscape:path-effect="#path-effect4964" /></g><g
             id="g4924"
             transform="matrix(0.48584706,0.26893125,0,0.61729498,24.211377,19.172473)"
             sodipodi:insensitive="true"
             inkscape:label="die_side_1"
             style="fill:#ffffff"><path
               style="fill:#ffffff;fill-opacity:1;stroke:none;stroke-width:4.0082;stroke-linecap:round;stroke-linejoin:round"
               id="path4922"
               width="16"
               height="16"
               x="0"
               y="0"
               rx="2.4310658"
               ry="2.1869609"
               mask="url(#mask-powermask-path-effect4968)"
               inkscape:path-effect="#path-effect4968"
               d="M 2.4310658,0 H 13.568934 C 14.915745,0 16,0.97538458 16,2.1869609 V 13.813039 C 16,15.024615 14.915745,16 13.568934,16 H 2.4310658 C 1.0842553,16 0,15.024615 0,13.813039 V 2.1869609 C 0,0.97538458 1.0842553,0 2.4310658,0 Z"
               sodipodi:type="rect"
               inkscape:label="die_side_1_pip" /></g></g><g
           id="g4948"
           inkscape:label="dumbbell"
           style="display:inline;fill:#ffffff"><g
             id="g4936"
             inkscape:label="dumbbell_l"
             style="fill:#ffffff"><rect
               style="fill:#ffffff;fill-opacity:1;stroke:none;stroke-width:2.43874;stroke-linecap:round;stroke-linejoin:round;stroke-dasharray:none"
               id="rect4928"
               width="2.5"
               height="14"
               x="20.40625"
               y="13.46875"
               ry="0.75"
               rx="0.75"
               sodipodi:insensitive="true"
               inkscape:label="dumbbell_l_1" /><rect
               style="fill:#ffffff;fill-opacity:1;stroke:none;stroke-width:2.10408;stroke-linecap:round;stroke-linejoin:round;stroke-dasharray:none"
               id="rect4930"
               width="2.4026117"
               height="10.84375"
               x="17.369287"
               y="15.013012"
               ry="0.75"
               rx="0.75"
               sodipodi:insensitive="true"
               inkscape:label="dumbbell_l_2" /><rect
               style="fill:#ffffff;fill-opacity:1;stroke:none;stroke-width:1.42997;stroke-linecap:round;stroke-linejoin:round;stroke-dasharray:none"
               id="rect4932"
               width="2"
               height="6.0166855"
               x="14.734937"
               y="17.426544"
               ry="0.75"
               rx="0.75"
               sodipodi:insensitive="true"
               inkscape:label="dumbbell_l_3" /><rect
               style="fill:#ffffff;fill-opacity:1;stroke:none;stroke-width:0.85934;stroke-linecap:round;stroke-linejoin:round;stroke-dasharray:none"
               id="rect4934"
               width="1.6640844"
               height="2.6114993"
               x="12.436502"
               y="19.129137"
               ry="0.75"
               rx="0.75"
               sodipodi:insensitive="true"
               inkscape:label="dumbbell_l_4" /></g><g
             id="g4946"
             inkscape:label="dumbbell_r"
             style="fill:#ffffff"><rect
               style="fill:#ffffff;fill-opacity:1;stroke:none;stroke-width:2.43874;stroke-linecap:round;stroke-linejoin:round;stroke-dasharray:none"
               id="rect4938"
               width="2.5"
               height="14"
               x="-44.427307"
               y="13.46875"
               ry="0.75"
               rx="0.75"
               transform="scale(-1,1)"
               sodipodi:insensitive="true"
               inkscape:label="dumbbell_r_1" /><rect
               style="fill:#ffffff;fill-opacity:1;stroke:none;stroke-width:2.10408;stroke-linecap:round;stroke-linejoin:round;stroke-dasharray:none"
               id="rect4940"
               width="2.4026117"
               height="10.84375"
               x="-47.464268"
               y="15.013012"
               ry="0.75"
               rx="0.75"
               transform="scale(-1,1)"
               sodipodi:insensitive="true"
               inkscape:label="dumbbell_r_2" /><rect
               style="fill:#ffffff;fill-opacity:1;stroke:none;stroke-width:1.42997;stroke-linecap:round;stroke-linejoin:round;stroke-dasharray:none"
               id="rect4942"
               width="2"
               height="6.0166855"
               x="-50.098618"
               y="17.426544"
               ry="0.75"
               rx="0.75"
               transform="scale(-1,1)"
               sodipodi:insensitive="true"
               inkscape:label="dumbbell_r_3" /><rect
               style="fill:#ffffff;fill-opacity:1;stroke:none;stroke-width:0.85934;stroke-linecap:round;stroke-linejoin:round;stroke-dasharray:none"
               id="rect4944"
               width="1.6640844"
               height="2.6114993"
               x="-52.397053"
               y="19.129139"
               ry="0.75"
               rx="0.75"
               transform="scale(-1,1)"
               sodipodi:insensitive="true"
               inkscape:label="dumbbell_r_4" /></g></g></g></g></g><metadata
     id="metadata11979"><rdf:RDF><cc:Work
         rdf:about=""><dc:title>Reward Randomizer icon</dc:title><dc:date>2023-06-02</dc:date><dc:creator><cc:Agent><dc:title>Chiral Symmetry</dc:title></cc:Agent></dc:creator><cc:license
           rdf:resource="http://creativecommons.org/licenses/by-sa/4.0/" /></cc:Work><cc:License
         rdf:about="http://creativecommons.org/licenses/by-sa/4.0/"><cc:permits
           rdf:resource="http://creativecommons.org/ns#Reproduction" /><cc:permits
           rdf:resource="http://creativecommons.org/ns#Distribution" /><cc:requires
           rdf:resource="http://creativecommons.org/ns#Notice" /><cc:requires
           rdf:resource="http://creativecommons.org/ns#Attribution" /><cc:permits
           rdf:resource="http://creativecommons.org/ns#DerivativeWorks" /><cc:requires
           rdf:resource="http://creativecommons.org/ns#ShareAlike" /></cc:License></rdf:RDF></metadata></svg>
